<?xml version="1.0" standalone="no"?><!DOCTYPE svg PUBLIC "-//W3C//DTD SVG 1.1//EN" "http://www.w3.org/Graphics/SVG/1.1/DTD/svg11.dtd"><svg height="1024" node-id="1" sillyvg="true" template-height="1024" template-width="1024" version="1.1" viewBox="0 0 1024 1024" width="1024" xmlns="http://www.w3.org/2000/svg" xmlns:xlink="http://www.w3.org/1999/xlink"><defs node-id="15"></defs><g node-id="17"><path d="M 0.00 0.00 L 1024.00 0.00 L 1024.00 1024.00 L 0.00 1024.00 Z" fill="none" group-id="1" id="矩形备份-196" node-id="6" stroke="none" target-height="1024" target-width="1024" target-x="0" target-y="0"></path><path d="M 599.39 242.00 C 599.39 258.38 611.15 283.17 634.67 316.37 L 604.92 316.37 L 604.93 353.91 C 643.33 354.10 662.53 354.72 662.53 355.79 C 662.53 359.66 699.85 406.40 708.37 406.40 L 668.22 406.40 L 668.22 460.51 L 715.21 460.51 L 715.21 402.01 L 732.62 398.96 L 750.02 395.91 C 752.71 395.44 755.28 397.18 755.84 399.85 L 760.01 419.75 C 760.57 422.41 758.92 425.03 756.29 425.69 C 739.78 429.81 727.77 430.36 720.27 427.36 L 720.27 460.51 L 782.60 460.51 L 782.60 414.26 C 788.40 413.25 794.21 412.23 800.01 411.21 L 817.41 408.16 C 820.10 407.69 822.68 409.44 823.24 412.11 L 827.40 432.00 C 827.96 434.66 826.32 437.28 823.68 437.94 C 807.17 442.06 795.17 442.62 787.66 439.61 L 787.66 460.51 L 854.55 460.51 L 854.55 427.83 L 882.63 422.84 C 884.81 422.45 886.90 423.87 887.35 426.03 L 890.74 442.44 C 891.18 444.58 889.86 446.69 887.74 447.22 C 874.40 450.60 864.70 451.06 858.63 448.59 L 858.63 460.51 L 872.44 460.51 L 933.70 654.51 L 948.00 654.51 L 948.00 668.81 L 76.00 668.81 L 76.00 654.51 L 90.30 654.51 L 151.56 460.51 L 157.69 460.51 L 157.69 448.59 C 151.62 451.06 141.92 450.60 128.58 447.22 C 126.46 446.69 125.14 444.58 125.58 442.44 L 128.97 426.03 C 129.42 423.87 131.51 422.45 133.69 422.84 C 143.05 424.51 152.41 426.17 161.77 427.83 L 161.77 460.51 L 207.77 460.51 L 207.77 439.61 C 200.26 442.62 188.25 442.06 171.75 437.94 C 169.11 437.28 167.46 434.66 168.02 432.00 L 172.19 412.11 C 172.75 409.44 175.33 407.69 178.01 408.16 C 189.62 410.20 201.22 412.23 212.82 414.26 L 212.82 460.51 L 262.90 460.51 L 262.90 427.36 C 255.40 430.36 243.39 429.81 226.88 425.69 C 224.25 425.03 222.60 422.41 223.16 419.75 L 227.33 399.85 C 227.89 397.18 230.46 395.44 233.15 395.91 C 244.75 397.94 256.36 399.98 267.96 402.01 L 267.96 460.51 L 325.14 460.51 L 325.14 406.40 L 277.16 406.40 C 277.16 406.40 326.99 369.95 326.99 355.79 C 353.08 355.49 377.66 355.22 400.71 354.99 L 388.45 354.99 L 388.45 316.37 L 360.58 316.37 C 360.58 316.37 373.45 306.96 390.85 280.01 L 391.38 279.18 C 395.39 272.92 401.00 260.52 408.22 242.00 L 411.12 244.90 C 411.35 245.13 411.57 245.35 411.80 245.58 L 412.78 246.56 C 412.99 246.78 413.21 246.99 413.41 247.19 L 418.98 252.76 C 419.12 252.90 419.26 253.04 419.40 253.18 L 421.57 255.35 C 421.68 255.46 421.78 255.56 421.87 255.65 L 424.05 257.83 C 424.07 257.85 424.09 257.87 424.11 257.89 L 424.19 257.97 L 581.00 257.97 L 581.01 257.96 C 581.32 257.72 587.45 252.40 599.39 242.00 Z M 204.38 595.24 C 186.49 595.24 171.98 621.13 171.98 653.07 C 171.98 653.55 171.98 654.03 171.99 654.51 L 236.78 654.51 L 236.78 653.79 C 236.78 653.55 236.78 653.31 236.78 653.07 C 236.78 621.13 222.28 595.24 204.38 595.24 Z M 672.88 654.51 L 672.87 654.00 C 672.51 614.34 654.39 582.39 632.08 582.39 C 609.67 582.39 591.49 614.61 591.28 654.51 L 547.84 654.51 C 548.27 649.86 548.49 645.08 548.49 640.22 C 548.49 591.72 526.46 552.40 499.29 552.40 C 472.11 552.40 450.08 591.72 450.08 640.22 C 450.08 645.08 450.31 649.86 450.73 654.51 L 672.88 654.51 Z M 756.31 595.24 C 738.41 595.24 723.91 621.13 723.91 653.07 C 723.91 653.55 723.91 654.03 723.92 654.51 L 788.70 654.51 L 788.71 653.79 C 788.71 653.55 788.71 653.31 788.71 653.07 C 788.71 621.13 774.21 595.24 756.31 595.24 Z M 513.02 482.97 C 505.13 482.97 498.73 489.37 498.73 497.27 C 498.73 505.16 505.13 511.56 513.02 511.56 C 520.92 511.56 527.32 505.16 527.32 497.27 C 527.32 489.37 520.92 482.97 513.02 482.97 Z M 843.85 489.10 L 557.95 489.10 L 557.95 503.39 L 843.85 503.39 L 843.85 489.10 Z M 468.09 489.10 L 182.19 489.10 L 182.19 503.39 L 468.09 503.39 L 468.09 489.10 Z M 490.56 414.22 C 477.59 414.22 467.07 432.96 467.07 456.08 C 467.07 457.58 467.12 459.05 467.20 460.51 L 513.91 460.51 L 513.93 460.18 C 514.00 458.83 514.04 457.46 514.04 456.08 C 514.04 432.96 503.53 414.22 490.56 414.22 Z M 415.07 428.51 C 404.83 428.51 396.43 442.61 395.66 460.51 L 434.49 460.51 C 433.71 442.61 425.31 428.51 415.07 428.51 Z M 553.94 428.51 C 543.70 428.51 535.30 442.61 534.52 460.51 L 573.36 460.51 C 572.58 442.61 564.18 428.51 553.94 428.51 Z M 349.80 434.64 C 341.58 434.64 334.85 446.07 334.36 460.51 L 365.23 460.51 C 364.74 446.07 358.02 434.64 349.80 434.64 Z M 613.24 434.64 C 605.01 434.64 598.29 446.07 597.80 460.51 L 628.67 460.51 C 628.18 446.07 621.46 434.64 613.24 434.64 Z M 502.81 324.36 C 497.17 324.36 492.60 328.93 492.60 334.57 C 492.60 340.21 497.17 344.78 502.81 344.78 C 508.45 344.78 513.02 340.21 513.02 334.57 C 513.02 328.93 508.45 324.36 502.81 324.36 Z M 381.94 654.00 C 381.58 614.34 363.45 582.39 341.14 582.39 C 318.73 582.39 300.55 614.61 300.34 654.51 L 268.56 654.51 L 381.94 654.51 L 381.94 654.00 Z" fill="#d1d5dc" fill-rule="nonzero" group-id="1" id="形状结合" node-id="7" stroke="none" target-height="426.8059" target-width="872" target-x="76" target-y="242"></path><g node-id="18"><path d="M 396.26 732.79 L 396.26 748.85 L 380.89 748.85 L 380.89 752.86 L 396.26 752.86 L 396.26 771.47 C 391.09 773.91 385.70 775.77 380.02 777.04 L 381.00 781.16 C 386.40 779.65 391.50 777.85 396.26 775.65 L 396.26 785.39 L 400.55 785.39 L 400.55 732.79 L 396.26 732.79 Z M 424.68 784.87 C 427.17 784.87 428.91 784.18 429.84 782.78 C 430.77 781.33 431.35 777.22 431.69 770.43 L 427.75 769.15 C 427.58 775.07 427.23 778.49 426.76 779.54 C 426.18 780.46 425.26 780.93 423.98 780.93 L 416.73 780.93 C 415.28 780.93 414.58 780.06 414.58 778.43 L 414.58 756.16 C 419.98 754.31 425.66 751.58 431.69 747.93 L 429.26 744.50 C 424.50 747.81 419.63 750.36 414.58 752.22 L 414.58 732.79 L 410.35 732.79 L 410.35 779.07 C 410.35 782.90 412.15 784.87 415.80 784.87 L 424.68 784.87 Z" fill="#303d54" fill-rule="nonzero" group-id="1,2" hidden="true" id="形状" node-id="9" stroke="none" target-height="52.606018" target-width="51.67801" target-x="380.016" target-y="732.78796" visibility="hidden"></path><path d="M 446.36 748.39 L 446.36 764.63 L 462.95 764.63 L 462.95 779.07 C 462.95 780.75 462.08 781.62 460.40 781.62 C 458.54 781.62 456.63 781.51 454.66 781.33 L 455.58 785.34 L 461.85 785.34 C 465.33 785.34 467.13 783.60 467.13 780.12 L 467.13 764.63 L 483.31 764.63 L 483.31 748.39 L 446.36 748.39 Z M 479.13 760.63 L 450.54 760.63 L 450.54 752.39 L 479.13 752.39 L 479.13 760.63 Z M 464.11 732.32 L 459.82 733.08 C 460.80 734.82 461.67 736.79 462.49 738.88 L 439.11 738.88 L 439.11 742.76 L 490.50 742.76 L 490.50 738.88 L 466.72 738.88 C 465.91 736.44 465.04 734.30 464.11 732.32 Z M 477.33 768.34 L 474.61 771.07 C 480.06 775.82 484.41 780.29 487.60 784.47 L 490.67 781.39 C 487.08 777.10 482.61 772.75 477.33 768.34 Z M 452.22 768.40 C 448.57 773.27 444.10 777.56 438.82 781.16 L 441.43 784.52 C 446.88 780.70 451.41 776.17 455.12 771.07 L 452.22 768.40 Z" fill="#303d54" fill-rule="nonzero" group-id="1,2" hidden="true" id="形状" node-id="10" stroke="none" target-height="53.012024" target-width="51.85202" target-x="438.82153" target-y="732.324" visibility="hidden"></path><path d="M 499.19 753.15 L 499.19 757.15 L 519.38 757.15 C 518.39 760.98 517.17 764.17 515.67 766.72 C 512.01 772.87 505.86 778.14 497.22 782.55 L 499.83 785.97 C 509.11 781.04 515.67 775.13 519.61 768.28 C 521.12 765.62 522.34 762.25 523.32 758.31 C 527.44 770.26 535.44 779.48 547.39 785.97 L 550.00 782.61 C 538.63 776.69 530.92 768.17 526.86 757.15 L 548.20 757.15 L 548.20 753.15 L 524.42 753.15 C 525.12 749.20 525.58 744.79 525.93 739.81 L 546.52 739.81 L 546.52 735.75 L 500.70 735.75 L 500.70 739.81 L 521.70 739.81 C 521.41 744.74 520.94 749.20 520.25 753.15 L 499.19 753.15 Z" fill="#303d54" fill-rule="nonzero" group-id="1,2" hidden="true" id="路径" node-id="11" stroke="none" target-height="50.228027" target-width="52.78" target-x="497.2211" target-y="735.746" visibility="hidden"></path><path d="M 606.49 738.30 L 584.91 738.30 C 584.10 736.04 583.23 734.01 582.30 732.15 L 577.66 732.96 C 578.65 734.59 579.52 736.33 580.33 738.30 L 558.29 738.30 L 558.29 750.71 L 562.58 750.71 L 562.58 742.36 L 602.19 742.36 L 602.19 750.77 L 606.49 750.77 L 606.49 738.30 Z M 556.90 754.42 L 556.90 758.48 L 570.87 758.48 C 569.02 761.67 567.05 764.92 564.96 768.17 C 570.35 769.91 575.75 771.94 581.20 774.26 C 575.05 778.96 566.99 781.33 557.13 781.39 L 559.56 785.28 C 570.35 784.93 578.94 781.91 585.43 776.11 C 591.58 778.90 597.73 782.15 603.88 785.74 L 606.66 782.09 C 600.51 778.61 594.42 775.59 588.45 773.04 C 591.52 769.44 594.25 764.63 596.63 758.48 L 608.05 758.48 L 608.05 754.42 L 578.07 754.42 C 579.46 751.87 580.91 749.14 582.42 746.24 L 578.12 744.97 C 576.56 748.10 574.88 751.23 573.14 754.42 L 556.90 754.42 Z M 575.80 758.48 L 592.04 758.48 C 590.07 763.59 587.52 767.88 584.39 771.30 C 579.81 769.39 575.34 767.76 570.93 766.49 C 572.44 764.17 574.06 761.50 575.80 758.48 Z" fill="#303d54" fill-rule="nonzero" group-id="1,2" hidden="true" id="形状" node-id="12" stroke="none" target-height="53.59204" target-width="51.156006" target-x="556.89667" target-y="732.14996" visibility="hidden"></path><path d="M 658.62 785.34 C 662.45 785.34 664.36 783.36 664.36 779.42 L 664.36 735.63 L 638.03 735.63 L 638.03 739.46 L 660.30 739.46 L 660.30 778.26 C 660.30 780.46 659.43 781.57 657.75 781.57 L 652.59 781.45 L 653.63 785.34 L 658.62 785.34 Z M 617.96 742.24 L 617.96 785.86 L 622.02 785.86 L 622.02 742.24 L 617.96 742.24 Z M 626.37 732.09 L 622.55 733.77 C 625.21 736.91 627.59 740.50 629.80 744.56 L 633.57 742.59 C 631.48 738.76 629.04 735.28 626.37 732.09 Z" fill="#303d54" fill-rule="nonzero" group-id="1,2" hidden="true" id="形状" node-id="13" stroke="none" target-height="53.76599" target-width="46.400024" target-x="617.96423" target-y="732.092" visibility="hidden"></path></g></g></svg>